<svg xmlns="http://www.w3.org/2000/svg" xmlns:xlink="http://www.w3.org/1999/xlink" width="198" height="198" viewBox="0 0 198 198"><defs><style>.a{fill:#fff;}.b{fill:#0090bf;}.c{filter:url(#a);}</style><filter id="a" x="0" y="0" width="198" height="198" filterUnits="userSpaceOnUse"><feOffset dy="3" input="SourceAlpha"/><feGaussianBlur stdDeviation="3" result="b"/><feFlood flood-color="#fff" flood-opacity="0.161"/><feComposite operator="in" in2="b"/><feComposite in="SourceGraphic"/></filter></defs><g transform="translate(-369.77 -910.77)"><g class="c" transform="matrix(1, 0, 0, 1, 369.77, 910.77)"><circle class="a" cx="90" cy="90" r="90" transform="translate(9 6)"/></g><g transform="translate(402.62 936.37)"><path class="b" d="M135.826,90.527l-19.113-2.4a2.107,2.107,0,0,1-1.847-2.1V81.448A25.1,25.1,0,0,0,123.3,64.315l.452-1.564a8.5,8.5,0,0,0,4.323-15.557,26.8,26.8,0,0,0-.4-12.307,24.657,24.657,0,0,0-7.292-11.912c-.524-.469-.986-.855-1.414-1.181a27.448,27.448,0,0,0-26.829-3.888L84.7,20.823c-7.813.249-11.672,7.463-12.029,14.6a45.867,45.867,0,0,0,1.622,13.456,8.491,8.491,0,0,0,3.8,13.408,45.366,45.366,0,0,0,4.01,8.1,25.105,25.105,0,0,0,7.264,11.059v4.579a2.09,2.09,0,0,1-1.641,2.062c-.08.011-.148.024-.2.036h-.013c-.551.069-5.859.738-8.592,1.084-2.4-4.868-4.931-9.565-7.528-13.981L68.139,67.48a2.125,2.125,0,0,0-2.748-1.15l-1.531.613L60.39,43.592a2.125,2.125,0,0,0-1.032-1.523L40.673,31.178a2.125,2.125,0,0,0-3.122,1.289L32.072,53.031a2.125,2.125,0,0,0,.356,1.825L46.7,73.811l-1.448.58a2.125,2.125,0,0,0-1.169,2.8l3.229,7.69c2.474,9.252,5.112,17.591,8.057,25.48V135a8.509,8.509,0,0,0,8.5,8.5H95.743a2.125,2.125,0,0,0,2.1-2.417,31.6,31.6,0,0,0-.872-3.96l5.136-1.632,23.916,7.61a8.486,8.486,0,0,0,2.576.4h11.76a8.509,8.509,0,0,0,8.5-8.5V105.277a14.875,14.875,0,0,0-13.036-14.751Zm8.787,29.38-22.228-2.223,11.937-5.968,10.292,1.715Zm0-14.629v3.845l-10.275-1.712a2.125,2.125,0,0,0-1.3.2l-12.4,6.2-18.522,1.852-12.479-1.248c-.353-.969-.712-1.928-1.062-2.863-2.311-6.188-4.9-12.33-7.708-18.3l6.064-.765a18.447,18.447,0,0,0,31.048.085L135.3,94.744a10.622,10.622,0,0,1,9.31,10.534ZM93.618,86.027V84.305a18.161,18.161,0,0,0,7.922,1.828h1.154a18.161,18.161,0,0,0,7.922-1.828v1.722a6.37,6.37,0,0,0,2.964,5.381,14.192,14.192,0,0,1-22.458-.335,6.366,6.366,0,0,0,2.5-5.046ZM105,47.887H99.231a4.672,4.672,0,0,0-3.913-2.125H86.646a27.325,27.325,0,0,0,2.723-11.91V30.889h2.3c3.479,0,6.268,2.544,9.221,5.237,2.9,2.648,5.9,5.387,9.722,5.387h8.5v4.271c-.14-.013-.282-.022-.425-.022h-9.774A4.672,4.672,0,0,0,105,47.887Zm-19.885,2.55a.425.425,0,0,1,.425-.425h9.774a.425.425,0,0,1,.425.425v3.4a.425.425,0,0,1-.425.425H85.544a.425.425,0,0,1-.425-.425Zm23.372,0a.425.425,0,0,1,.425-.425h9.774a.425.425,0,0,1,.425.425v3.4a.425.425,0,0,1-.425.425h-9.774a.425.425,0,0,1-.425-.425Zm14.873,8.074v-8.5a4.25,4.25,0,1,1,0,8.5ZM76.915,35.649c.244-4.881,2.539-10.581,8.2-10.581a2.121,2.121,0,0,0,.776-.147l7.8-3.059a23.182,23.182,0,0,1,22.668,3.284l.023.018c.34.259.722.579,1.165.975a21.532,21.532,0,0,1,6.467,19.651c-.215-.016-.431-.027-.65-.027V39.389a2.125,2.125,0,0,0-2.125-2.125H110.616c-2.171,0-4.448-2.077-6.858-4.276C100.5,30.013,96.8,26.64,91.673,26.64H87.244a2.125,2.125,0,0,0-2.125,2.125v5.088a23.088,23.088,0,0,1-3.3,11.91H80.87a8.461,8.461,0,0,0-2.834.488A38.985,38.985,0,0,1,76.915,35.649ZM80.87,50.012v8.5a4.25,4.25,0,0,1,0-8.5Zm4.25,12.574v-4.1c.14.013,10.2.022,10.2.022a4.68,4.68,0,0,0,4.674-4.674v-1.7h4.25v1.7a4.68,4.68,0,0,0,4.674,4.674s10.059-.009,10.2-.022c0,0-.011,4.869-.032,5.252a.151.151,0,0,1,0,.027,20.867,20.867,0,0,1-7.5,14.9,13.913,13.913,0,0,1-8.89,3.218H101.54a13.913,13.913,0,0,1-8.89-3.219,20.873,20.873,0,0,1-7.531-16.078ZM84.6,113.035l.338.9-1.339-.133-12.4-6.2a2.127,2.127,0,0,0-1.3-.2l-1.331.222c-1.173-2.876-2.318-5.886-3.414-8.972l-4,1.422c1.005,2.831,2.052,5.6,3.123,8.266l-4.812.8c-2.756-7.351-5.24-15.1-7.573-23.649l16.684-6.678c2.488,4.315,4.906,8.887,7.2,13.615C79.017,99.116,81.985,106.045,84.6,113.035ZM66.687,75,50.494,81.471l-1.655-3.938,16.19-6.481ZM36.444,53.125l3.609-13.549L46.111,54a4.262,4.262,0,0,0-.578.979,4.177,4.177,0,0,0,0,3.252,4.333,4.333,0,0,0,5.587,2.311,4.243,4.243,0,0,0,2.36-2.315,4.173,4.173,0,0,0,0-3.252A4.3,4.3,0,0,0,50.045,52.4L44.021,38.049l12.315,7.179L59.8,68.567l-9.014,3.608ZM90.29,139.252l2.633-.839c.076.28.151.56.22.839Zm3.426-5.551L76.925,139.05a4.462,4.462,0,0,1-1.3.2H63.871a4.255,4.255,0,0,1-4.25-4.25v-4.936l8.714-3.485,14.138,2.662L95.1,133.261Zm50.9,1.3a4.255,4.255,0,0,1-4.25,4.25H128.6a4.24,4.24,0,0,1-1.288-.2l-43.677-13.9a2.1,2.1,0,0,0-.251-.063l-14.873-2.8a2.125,2.125,0,0,0-1.182.115l-7.71,3.084V113.43l10.292-1.715,12.131,6.065a2.122,2.122,0,0,0,.739.214l61.829,6.183Z" transform="translate(-32 -16.022)"/><path class="b" d="M269.433,211.426c.549-.027,3.836-.027,4.385,0,.631.032,1.278.048,1.92.048a30.848,30.848,0,0,0,4.382-.279l.325-.049-.637-4.2-.324.049a30.2,30.2,0,0,1-5.448.189c-.621-.032-4.2-.032-4.816,0a30.249,30.249,0,0,1-5.448-.189l-.324-.049-.637,4.2.325.049A34.292,34.292,0,0,0,269.433,211.426Z" transform="translate(-201.509 -156.236)"/><path class="b" d="M131.464,298.205c.427,1.361.875,2.741,1.331,4.1l4.03-1.349c-.448-1.337-.887-2.692-1.306-4.027Z" transform="translate(-105.047 -222.324)"/></g></g></svg>