<svg xmlns="http://www.w3.org/2000/svg" width="180" height="180" viewBox="0 0 180 180"><defs><style>.a{fill:#123147;opacity:0.02;}.b{fill:#0090bf;}</style></defs><g transform="translate(-1388.326 -915.326)"><circle class="a" cx="90" cy="90" r="90" transform="translate(1388.326 915.326)"/><g transform="translate(1417.223 944.223)"><g transform="translate(0 0)"><path class="b" d="M116.113,89.521H95.042V77.577a1.786,1.786,0,1,0-3.571,0v30.872a13.18,13.18,0,0,0,4.188,9.642h-82.4a9.653,9.653,0,0,1-9.642-9.642V4.494L14.46,9.141a1.784,1.784,0,0,0,1.33.031L30.4,3.693l14.61,5.479a1.785,1.785,0,0,0,1.254,0L60.876,3.693,75.487,9.172a1.785,1.785,0,0,0,1.192.022L91.471,4.264V28.69a1.786,1.786,0,0,0,3.571,0V1.786A1.8,1.8,0,0,0,92.692.092L76.149,5.606,61.5.114a1.785,1.785,0,0,0-1.254,0L45.639,5.593,31.028.114a1.785,1.785,0,0,0-1.254,0L15.208,5.576,2.534.145A1.8,1.8,0,0,0,.045,1.786V108.449a13.229,13.229,0,0,0,13.214,13.214h91.425A13.229,13.229,0,0,0,117.9,108.449V91.307A1.786,1.786,0,0,0,116.113,89.521Zm-1.786,18.928a9.642,9.642,0,0,1-19.285,0V93.093h19.285v15.357Z" transform="translate(-0.045 0)"/></g><g transform="translate(15.238 24.761)"><path class="b" d="M94.407,122.588v-5.171A13.229,13.229,0,0,0,81.193,104.2H69.765a5.6,5.6,0,0,0-5.6,5.6v34.285a5.6,5.6,0,0,0,5.6,5.6H88.812a13.229,13.229,0,0,0,13.214-13.214v-1.9A13.236,13.236,0,0,0,94.407,122.588Zm4.047,13.876a9.653,9.653,0,0,1-9.642,9.642H69.765a2.026,2.026,0,0,1-2.024-2.024V109.8a2.026,2.026,0,0,1,2.024-2.024H81.193a9.653,9.653,0,0,1,9.642,9.642v5.714a2.074,2.074,0,0,1-.028.34,1.785,1.785,0,0,0,1.173,1.981,9.659,9.659,0,0,1,6.474,9.108Z" transform="translate(-64.17 -104.203)"/></g><g transform="translate(22.856 32.38)"><path class="b" d="M105.637,136.266H98.018a1.786,1.786,0,0,0-1.786,1.786v9.523a1.786,1.786,0,0,0,1.786,1.786h11.428a1.786,1.786,0,0,0,1.786-1.786v-5.714A5.6,5.6,0,0,0,105.637,136.266Zm2.024,9.523H99.8v-5.952h5.833a2.026,2.026,0,0,1,2.024,2.024Z" transform="translate(-96.232 -136.266)"/></g><g transform="translate(22.856 49.522)"><path class="b" d="M113.256,208.407H98.019a1.786,1.786,0,0,0-1.786,1.786v9.523a1.786,1.786,0,0,0,1.786,1.786h15.238a5.6,5.6,0,0,0,5.6-5.6V214A5.6,5.6,0,0,0,113.256,208.407Zm2.024,7.5a2.026,2.026,0,0,1-2.024,2.024H99.8v-5.952h13.452A2.026,2.026,0,0,1,115.28,214Z" transform="translate(-96.233 -208.407)"/></g><g transform="translate(15.238 97.139)"><path class="b" d="M90.717,408.8H65.956a1.786,1.786,0,0,0,0,3.572H90.717a1.786,1.786,0,1,0,0-3.572Z" transform="translate(-64.17 -408.798)"/></g><g transform="translate(15.238 87.616)"><path class="b" d="M75.479,368.72H65.956a1.786,1.786,0,1,0,0,3.571h9.523a1.786,1.786,0,1,0,0-3.571Z" transform="translate(-64.17 -368.72)"/></g><g transform="translate(30.475 87.616)"><path class="b" d="M143.414,368.72H130.081a1.786,1.786,0,1,0,0,3.571h13.333a1.786,1.786,0,1,0,0-3.571Z" transform="translate(-128.295 -368.72)"/></g><g transform="translate(15.238 78.093)"><path class="b" d="M85,328.642H65.956a1.786,1.786,0,1,0,0,3.571H85a1.786,1.786,0,1,0,0-3.571Z" transform="translate(-64.17 -328.642)"/></g><g transform="translate(39.999 78.093)"><path class="b" d="M173.969,328.642H170.16a1.786,1.786,0,0,0,0,3.571h3.809a1.786,1.786,0,1,0,0-3.571Z" transform="translate(-168.374 -328.642)"/></g><g transform="translate(45.594 24.644)"><path class="b" d="M266.349,116.124l-10.774-10.775a5.6,5.6,0,0,0-7.913,0l-48.486,48.486a1.808,1.808,0,0,0-.505,1.01l-2.609,18.266-3.62,3.62a1.786,1.786,0,1,0,2.525,2.525l3.62-3.62,18.266-2.609a1.8,1.8,0,0,0,1.01-.505l48.485-48.485A5.647,5.647,0,0,0,266.349,116.124Zm-66.5,55.725,1.852-12.963L212.813,170Zm16.751-3.114-5.556-5.556L235.7,138.523A1.786,1.786,0,0,0,233.175,136L208.52,160.653l-5.556-5.556,37.879-37.879,5.556,5.556-7.59,7.59a1.786,1.786,0,0,0,2.525,2.525l7.59-7.59,5.556,5.556Zm40.4-40.4-13.637-13.637,1.515-1.515,13.637,13.637Zm6.818-6.818-2.778,2.778-13.637-13.637,2.778-2.778a2.027,2.027,0,0,1,2.862,0l10.775,10.775A2.043,2.043,0,0,1,263.824,121.511Z" transform="translate(-191.919 -103.713)"/></g></g></g></svg>