<svg xmlns="http://www.w3.org/2000/svg" xmlns:xlink="http://www.w3.org/1999/xlink" width="198" height="198" viewBox="0 0 198 198"><defs><style>.a{fill:#fff;}.b{fill:none;}.c,.d{fill:#0090bf;}.c{fill-rule:evenodd;}.e{filter:url(#a);}</style><filter id="a" x="0" y="0" width="198" height="198" filterUnits="userSpaceOnUse"><feOffset dy="3" input="SourceAlpha"/><feGaussianBlur stdDeviation="3" result="b"/><feFlood flood-color="#fff" flood-opacity="0.161"/><feComposite operator="in" in2="b"/><feComposite in="SourceGraphic"/></filter></defs><g transform="translate(-1379 -1338)"><g class="e" transform="matrix(1, 0, 0, 1, 1379, 1338)"><circle class="a" cx="90" cy="90" r="90" transform="translate(9 6)"/></g><g transform="translate(1398 1366.001)"><rect class="b" width="159.284" height="136.929" transform="translate(0)"/><path class="c" d="M42.625,74.584A12.724,12.724,0,0,0,44.6,76.553a86.009,86.009,0,0,0-7.389,35.214c0,1.2.024,2.4.073,3.579l-1.123-.067a8.187,8.187,0,0,0-1.377.11c-.053-1.248-.079-2.513-.079-3.784a88.848,88.848,0,0,1,7.919-37.021Zm117.03,1.086a88.981,88.981,0,0,1,7.433,35.934c0,1.061-.018,2.118-.059,3.18a8.739,8.739,0,0,0-2.2-.314q.048-1.346.045-2.7a86.113,86.113,0,0,0-7.148-34.675,11,11,0,0,0,1.932-1.421Zm-45.2-40.464A63.165,63.165,0,0,1,145.6,54.077a12.225,12.225,0,0,0-1.675,1.862A60.866,60.866,0,0,0,114.4,38.028a12.861,12.861,0,0,0,.1-1.663l-.05-1.158ZM93,34.118a13.8,13.8,0,0,0-.177,2.247l.026.617c-12.71,1.925-24.256,8.276-33.486,17.7a11.653,11.653,0,0,0-2.021-1.815C67.113,42.773,79.431,36.016,93,34.118Z" transform="translate(-20.398 -20.338)"/><rect class="d" width="2.892" height="16.113" transform="translate(81.952 31.314)"/><g transform="translate(42.96 52.426)"><path class="d" d="M187.8,147.984c0,13.064,7.943,27.081,17.736,27.081s17.74-14.017,17.74-27.081C223.271,120.906,187.8,120.852,187.8,147.984Z" transform="translate(-166.038 -127.655)"/><path class="d" d="M166.055,233.306a11.656,11.656,0,0,0,17.143,0c1.7,1.407,3.281,2.57,4.724,2.57a27.866,27.866,0,0,1,23.93,18.762l1.977,5.826a5.485,5.485,0,0,1-5.191,7.253H140.613a5.489,5.489,0,0,1-5.191-7.253l1.977-5.824a27.866,27.866,0,0,1,23.937-18.764c1.443,0,3.021-1.165,4.719-2.574Z" transform="translate(-135.133 -189.655)"/><circle class="d" cx="15.294" cy="15.294" r="15.294" transform="translate(24.435 1.498)"/></g><g transform="translate(6.112 5.698)"><ellipse class="d" cx="10.163" cy="9.98" rx="10.163" ry="9.98" transform="translate(66.74)"/><path class="d" d="M219.4,16.95a1.118,1.118,0,1,1-.284,2.217,6.635,6.635,0,0,0-5.533,3.562,1.322,1.322,0,0,1-.7.559c-.889.233-1.732-.773-1.087-1.906A8.61,8.61,0,0,1,219.4,16.95Z" transform="translate(-142.292 -15.96)"/><path class="d" d="M210.446,34.567a1.225,1.225,0,0,1,1.047,1.394c-.033,1.206.944,2.548.04,3.434s-2.3-.609-2.257-3.359C209.288,35.314,209.628,34.545,210.446,34.567Z" transform="translate(-140.372 -26.299)"/><ellipse class="d" cx="10.163" cy="9.98" rx="10.163" ry="9.98" transform="translate(113.367 28.469)"/><path class="d" d="M359.752,85.854a1.118,1.118,0,1,1-.283,2.218,6.633,6.633,0,0,0-5.532,3.562s-1.5,1.289-2.021-.127c-.292-.787.473-1.735,1.16-2.55a8.459,8.459,0,0,1,6.676-3.1Z" transform="translate(-236.623 -56.395)"/><path class="d" d="M350.9,103.471a1.225,1.225,0,0,1,1.048,1.394c-.033,1.206.945,2.548.04,3.434s-2.3-.609-2.257-3.359C349.738,104.2,350.13,103.451,350.9,103.471Z" transform="translate(-235.375 -66.735)"/><ellipse class="d" cx="10.163" cy="9.98" rx="10.163" ry="9.98" transform="translate(17.376 28.469)"/><path class="d" d="M69.428,85.854a1.118,1.118,0,1,1-.283,2.218,6.634,6.634,0,0,0-5.532,3.562,1.324,1.324,0,0,1-.7.559c-.889.233-1.733-.771-1.087-1.906a8.636,8.636,0,0,1,7.6-4.434Z" transform="translate(-42.29 -56.395)"/><path class="d" d="M60.475,103.471a1.227,1.227,0,0,1,1.047,1.394c-.033,1.206.944,2.548.04,3.434s-2.3-.609-2.257-3.359c.012-.744.4-1.489,1.17-1.469Z" transform="translate(-40.945 -66.735)"/><ellipse class="d" cx="10.163" cy="9.98" rx="10.163" ry="9.98" transform="translate(0 91.623)"/><path class="d" d="M27.374,238.71a1.118,1.118,0,1,1-.284,2.217,6.64,6.64,0,0,0-5.533,3.562,1.323,1.323,0,0,1-.7.559c-.889.233-1.732-.773-1.087-1.906A8.606,8.606,0,0,1,27.374,238.71Z" transform="translate(-17.611 -146.097)"/><path class="d" d="M18.42,256.327a1.227,1.227,0,0,1,1.047,1.394c-.03,1.094.76,2.227.235,3.178-.64,1.161-2.5.124-2.452-3.1C17.261,257.053,17.654,256.307,18.42,256.327Z" transform="translate(-16.265 -156.436)"/><ellipse class="d" cx="10.163" cy="9.98" rx="10.163" ry="9.98" transform="translate(127.136 91.623)"/><path class="d" d="M393.177,238.71a1.118,1.118,0,0,1-.284,2.217,6.64,6.64,0,0,0-5.533,3.562,1.323,1.323,0,0,1-.7.559c-.889.233-1.732-.773-1.087-1.906A8.606,8.606,0,0,1,393.177,238.71Z" transform="translate(-256.277 -146.097)"/><path class="d" d="M384.223,256.327a1.227,1.227,0,0,1,1.047,1.394c-.03,1.094.76,2.227.235,3.178-.64,1.161-2.5.124-2.451-3.1C383.065,257.053,383.457,256.307,384.223,256.327Z" transform="translate(-254.932 -156.436)"/></g></g></g></svg>