<svg width="90" height="27" viewBox="0 0 90 27" fill="none" xmlns="http://www.w3.org/2000/svg">
<path d="M5.55859 21.7637H16.7559V26H0.285156V0.40625H5.55859V21.7637ZM39.6953 13.7832C39.6953 16.3027 39.25 18.5117 38.3594 20.4102C37.4688 22.3086 36.1914 23.7734 34.5273 24.8047C32.875 25.8359 30.9766 26.3516 28.832 26.3516C26.7109 26.3516 24.8184 25.8418 23.1543 24.8223C21.4902 23.8027 20.2012 22.3496 19.2871 20.4629C18.373 18.5645 17.9102 16.3848 17.8984 13.9238V12.6582C17.8984 10.1387 18.3496 7.92383 19.252 6.01367C20.166 4.0918 21.4492 2.62109 23.1016 1.60156C24.7656 0.570312 26.6641 0.0546875 28.7969 0.0546875C30.9297 0.0546875 32.8223 0.570312 34.4746 1.60156C36.1387 2.62109 37.4219 4.0918 38.3242 6.01367C39.2383 7.92383 39.6953 10.1328 39.6953 12.6406V13.7832ZM34.3516 12.623C34.3516 9.93945 33.8711 7.90039 32.9102 6.50586C31.9492 5.11133 30.5781 4.41406 28.7969 4.41406C27.0273 4.41406 25.6621 5.10547 24.7012 6.48828C23.7402 7.85938 23.2539 9.875 23.2422 12.5352V13.7832C23.2422 16.3965 23.7227 18.4238 24.6836 19.8652C25.6445 21.3066 27.0273 22.0273 28.832 22.0273C30.6016 22.0273 31.9609 21.3359 32.9102 19.9531C33.8594 18.5586 34.3398 16.5312 34.3516 13.8711V12.623ZM63.7773 22.7656C62.8281 23.9023 61.4863 24.7871 59.752 25.4199C58.0176 26.041 56.0957 26.3516 53.9863 26.3516C51.7715 26.3516 49.8262 25.8711 48.1504 24.9102C46.4863 23.9375 45.1973 22.5312 44.2832 20.6914C43.3809 18.8516 42.918 16.6895 42.8945 14.2051V12.4648C42.8945 9.91016 43.3223 7.70117 44.1777 5.83789C45.0449 3.96289 46.2871 2.5332 47.9043 1.54883C49.5332 0.552734 51.4375 0.0546875 53.6172 0.0546875C56.6523 0.0546875 59.0254 0.78125 60.7363 2.23438C62.4473 3.67578 63.4609 5.7793 63.7773 8.54492H58.6445C58.4102 7.08008 57.8887 6.00781 57.0801 5.32812C56.2832 4.64844 55.1816 4.30859 53.7754 4.30859C51.9824 4.30859 50.6172 4.98242 49.6797 6.33008C48.7422 7.67773 48.2676 9.68164 48.2559 12.3418V13.9766C48.2559 16.6602 48.7656 18.6875 49.7852 20.0586C50.8047 21.4297 52.2988 22.1152 54.2676 22.1152C56.248 22.1152 57.6602 21.6934 58.5039 20.8496V16.4375H53.7051V12.5527H63.7773V22.7656ZM89.0898 13.7832C89.0898 16.3027 88.6445 18.5117 87.7539 20.4102C86.8633 22.3086 85.5859 23.7734 83.9219 24.8047C82.2695 25.8359 80.3711 26.3516 78.2266 26.3516C76.1055 26.3516 74.2129 25.8418 72.5488 24.8223C70.8848 23.8027 69.5957 22.3496 68.6816 20.4629C67.7676 18.5645 67.3047 16.3848 67.293 13.9238V12.6582C67.293 10.1387 67.7441 7.92383 68.6465 6.01367C69.5605 4.0918 70.8438 2.62109 72.4961 1.60156C74.1602 0.570312 76.0586 0.0546875 78.1914 0.0546875C80.3242 0.0546875 82.2168 0.570312 83.8691 1.60156C85.5332 2.62109 86.8164 4.0918 87.7188 6.01367C88.6328 7.92383 89.0898 10.1328 89.0898 12.6406V13.7832ZM83.7461 12.623C83.7461 9.93945 83.2656 7.90039 82.3047 6.50586C81.3438 5.11133 79.9727 4.41406 78.1914 4.41406C76.4219 4.41406 75.0566 5.10547 74.0957 6.48828C73.1348 7.85938 72.6484 9.875 72.6367 12.5352V13.7832C72.6367 16.3965 73.1172 18.4238 74.0781 19.8652C75.0391 21.3066 76.4219 22.0273 78.2266 22.0273C79.9961 22.0273 81.3555 21.3359 82.3047 19.9531C83.2539 18.5586 83.7344 16.5312 83.7461 13.8711V12.623Z" fill="black"/>
</svg>
