<svg id="Layer_1" data-name="Layer 1" xmlns="http://www.w3.org/2000/svg" xmlns:xlink="http://www.w3.org/1999/xlink" viewBox="0 0 352.84 312.45"><defs><linearGradient id="linear-gradient" x1="198.41" y1="159.75" x2="198.41" y2="43.74" gradientTransform="matrix(1, 0, 0, -1, -30.76, 331.41)" gradientUnits="userSpaceOnUse"><stop offset="0.01"/><stop offset="0.08" stop-opacity="0.69"/><stop offset="0.21" stop-opacity="0.32"/><stop offset="1" stop-opacity="0"/></linearGradient><linearGradient id="linear-gradient-2" x1="311.25" y1="322.31" x2="318.47" y2="-73.14" xlink:href="#linear-gradient"/><linearGradient id="linear-gradient-3" x1="233.34" y1="307.51" x2="240.17" y2="-66.93" xlink:href="#linear-gradient"/><linearGradient id="linear-gradient-4" x1="159.34" y1="303.87" x2="166.1" y2="-66.84" xlink:href="#linear-gradient"/><linearGradient id="linear-gradient-5" x1="77.7" y1="186.2" x2="135.67" y2="151.32" gradientTransform="matrix(1, 0, 0, -1, 0, 352)" xlink:href="#linear-gradient"/><linearGradient id="linear-gradient-6" x1="134.62" y1="135.31" x2="136.3" y2="171.15" gradientTransform="matrix(1, 0, 0, -1, 0, 352)" xlink:href="#linear-gradient"/><linearGradient id="linear-gradient-7" x1="160.04" y1="219.09" x2="140.08" y2="196.68" gradientTransform="matrix(1, 0, 0, -1, 0, 352)" xlink:href="#linear-gradient"/><linearGradient id="linear-gradient-8" x1="126.68" y1="196.07" x2="170.98" y2="193.69" gradientTransform="matrix(1, 0, 0, -1, 0, 352)" xlink:href="#linear-gradient"/></defs><title>12</title><path d="M326.84,82.18c-7.94-17.82-19.75-34.43-36.17-44.94C277.73,29,262.56,24.81,247.39,22.39c-11.55-1.85-23.45-2.75-34.89-.33-26,5.51-45.47,27.07-60,49.33s-26.5,46.83-46.22,64.66c-12,10.84-26.34,18.67-39.56,28S40.94,184.75,35,199.79c-5.78,14.63-4.66,31-2.42,46.58,2.72,19,7.35,38.54,19.78,53.13,18.21,21.38,48.49,27.09,76.36,30.57,15.12,1.88,30.34,3.51,45.56,2.81,26.3-1.22,51.77-9.34,77.85-13,31.76-4.44,67.06-3.23,91.7-23.76,12.46-10.38,20.42-25.15,26.9-40,10.22-23.44,17.54-50.12,9.36-74.33-6.52-19.3-21-30.46-33.9-44.95-5.8-6.49-6.43-15.2-8.66-23.47A212.9,212.9,0,0,0,326.84,82.18Z" transform="translate(-30.76 -20.59)" fill="#29638d" opacity="0.18" style="isolation:isolate"/><ellipse cx="167.65" cy="261.75" rx="149.06" ry="15.06" fill="url(#linear-gradient)"/><path d="M259.08,99.29a4.68,4.68,0,0,0,2.15,1,5,5,0,0,0,2.13-.38l10.3-3.43a3.92,3.92,0,0,1,.85,5.25,7.61,7.61,0,0,1-3.78,2.29l-7.07,2.54a12.08,12.08,0,0,1-10.42-.07c-2.11-.7-4.42-1.57-5.43-3.55s-.28-4.61-.58-6.93c-.2-1.51-.87-3-.83-4.48,0-1.3,1.06-3.26,2.62-3,1.34.23,2.23,2.56,2.94,3.54A32.73,32.73,0,0,0,259.08,99.29Z" transform="translate(-30.76 -20.59)" fill="#fff"/><path d="M275,95.92a2.45,2.45,0,0,1,.49-.74.76.76,0,0,1,.82-.17.83.83,0,0,1,.39.81.45.45,0,0,0,.07.31.36.36,0,0,0,.32,0c1.18-.22,2.36-.4,3.55-.52a1.41,1.41,0,0,1,.29,0,.78.78,0,0,1,.51,1h0a3.78,3.78,0,0,1-.57,1.09c-.61,1-.83,2.3-1.8,2.94a3.18,3.18,0,0,1-2,.41c-.68,0-1.35-.16-2-.13a2.13,2.13,0,0,1-1.34-.14,1.17,1.17,0,0,1-.46-1,3.79,3.79,0,0,1,.64-1.71C274.25,97.37,274.6,96.65,275,95.92Z" transform="translate(-30.76 -20.59)" fill="#fdb9a9"/><path d="M246.21,173.5c3.95-.89,3.18,4.71,4.22,6.78a11.22,11.22,0,0,0,2.43,2.8,5,5,0,0,1,1.78,3.18,1.21,1.21,0,0,1-.14.67,1.29,1.29,0,0,1-.78.48,9.17,9.17,0,0,1-6.76-.67,5.41,5.41,0,0,1-2.32-2.15,7.61,7.61,0,0,1-.6-3.19C244,179.07,242.92,174.24,246.21,173.5Z" transform="translate(-30.76 -20.59)" fill="#fdb9a9"/><path d="M249.7,185s11.24.48,6.48,4-11.86-.86-12.55-1.67-.13-2.18-.13-2.18Z" transform="translate(-30.76 -20.59)" fill="#29638d"/><path d="M244.12,186.57c1,1.22,6.28,2.86,8.61,2.7s4.43-1.26,4.2-2.77-4.35-5-5.13-5-1.39,1.8-3,2.17a4.16,4.16,0,0,1-3.8-1.36,1,1,0,0,0-1.28-.33A5,5,0,0,0,244.12,186.57Z" transform="translate(-30.76 -20.59)" fill="#fff"/><path d="M232.67,175.71c4-.91,3.18,4.68,4.22,6.76a10.89,10.89,0,0,0,2.44,2.8,5,5,0,0,1,1.77,3.18,1.12,1.12,0,0,1-.14.67,1.23,1.23,0,0,1-.78.47,9.12,9.12,0,0,1-6.76-.66,5.41,5.41,0,0,1-2.32-2.15,7.45,7.45,0,0,1-.59-3.19C230.42,181.23,229.38,176.41,232.67,175.71Z" transform="translate(-30.76 -20.59)" fill="#fdb9a9"/><path d="M236.17,187.18s11.23.47,6.47,4-11.86-.86-12.55-1.66-.13-2.19-.13-2.19Z" transform="translate(-30.76 -20.59)" fill="#29638d"/><path d="M230.58,188.71c1,1.23,6.28,2.86,8.61,2.7s4.43-1.26,4.2-2.77-4.35-5-5.12-5-1.4,1.8-3,2.17a4.16,4.16,0,0,1-3.8-1.36,1,1,0,0,0-1.27-.33A5,5,0,0,0,230.58,188.71Z" transform="translate(-30.76 -20.59)" fill="#fff"/><path d="M242.85,124.77l-5.28,55.53-7.6-.94c-3-13.55-2.27-54.09-2.27-54.09Z" transform="translate(-30.76 -20.59)" fill="#473f47"/><path d="M237.57,123.27l5.28,55.53,7.62-.94c4.35-35.14.77-57,.77-57Z" transform="translate(-30.76 -20.59)" fill="#473f47"/><path d="M250.57,103.18c.09-1,.36-2,.47-3.06a22.92,22.92,0,0,0-.12-6.3,24,24,0,0,0-2-6.41c-.88-1.77-2.47-2.52-4.25-3.39a15,15,0,0,0-4.79-1.63,12,12,0,0,0-3.54.2c-3.58.68-8.31,2.53-10.76,5.36-1.84,2.12-2,5.16-2.11,8q-.12,5.82.24,11.63c0,.57.07,1.13.11,1.69A63,63,0,0,0,225.73,122c.38,1.29.78,2.58,2,3.27,2.81,1.63,7.1.74,10.13.31,4-.57,8.15-1.16,11.71-3.11a3.32,3.32,0,0,0,1.7-1.64,4.41,4.41,0,0,0-.34-2.7c-1.21-4-.27-8.14-.27-12.19,0-.73-.09-1.48-.09-2.22A3.24,3.24,0,0,1,250.57,103.18Z" transform="translate(-30.76 -20.59)" fill="#fff"/><path d="M239.33,121.83a2,2,0,0,0-.31-1.22c-.45-.56-1.32-.44-2-.26l-4.53,1.12c-1.7.42-4.33,2.1-4.77,3.8-1.74-1.22-2.19-3.27-2.51-5.37s-.34-6.19-.72-8.28A13.75,13.75,0,0,0,232,114.2c2.57.06,5.8,0,6.73-2.81,1.07-3.24,1.45-6.64,2.16-10a.68.68,0,0,1,.21-.42.57.57,0,0,1,.4-.09l9.77.11a.84.84,0,0,1,.44.08c.29.17.29.58.24.9a9.86,9.86,0,0,1-3.14,5.72,3.43,3.43,0,0,0-1.47,2.18c-.18,1.22-.13,2.52-.26,3.75a28.5,28.5,0,0,1-1.69,7.62C244,124.77,239.59,127.49,239.33,121.83Z" transform="translate(-30.76 -20.59)" fill="#020202" opacity="0.1" style="isolation:isolate"/><polygon points="211.23 104.05 225.77 104.05 227.57 81.45 213.03 81.45 211.23 104.05" fill="#29638d"/><path d="M242.83,76.81a30.5,30.5,0,0,0-.19-3.18c-.11-1-.25-1.86-.43-2.77a1.89,1.89,0,0,0-.71-1.41,8.91,8.91,0,0,0-4.74-1.3,4.61,4.61,0,0,0-3.46,1.25,4.43,4.43,0,0,0-1,2.53c-.26,2.33.35,4.65.69,7a29,29,0,0,1,.28,5.43,6.41,6.41,0,0,0,2.93,1,4.68,4.68,0,0,0,1.44-.25.72.72,0,0,0,.65-1,5.42,5.42,0,0,1,0-.57h0a17,17,0,0,1,.06-3.19.36.36,0,0,1,.09-.24.41.41,0,0,1,.22,0h.3a8.45,8.45,0,0,0,1.59,0,2.63,2.63,0,0,0,1.65-.83A3.35,3.35,0,0,0,242.83,76.81Z" transform="translate(-30.76 -20.59)" fill="#fdb9a9"/><path d="M240.68,70c.38.07.7.2,1,0a4.93,4.93,0,0,0,.88-1,4.18,4.18,0,0,0,.82-2.75A2.41,2.41,0,0,0,243,65a2.64,2.64,0,0,0-1-.75,5,5,0,0,0-2.46-.49,5.87,5.87,0,0,0-3.29,1.57,1.86,1.86,0,0,1-.68.46,1.75,1.75,0,0,1-.72,0,6.06,6.06,0,0,0-4.35,1.34,22.63,22.63,0,0,1-2,1.91c-.78.53-1.42.74-1.8,1.41a1.91,1.91,0,0,0,.22,2,3.09,3.09,0,0,0,1.8,1,1.61,1.61,0,0,0,.92,2.08l.08,0a2.35,2.35,0,0,1,.81.27c.17.13.25.34.42.48.41.33.94.45,1.11,1a3.64,3.64,0,0,1,.07.74,1.69,1.69,0,0,0,.42,1c.16.17.44.61.68.65s.44-.23.52-.47a4.83,4.83,0,0,0-.22-3.18,3.6,3.6,0,0,1-.52-1.62c.06-.56.83-1,1.2-.68s.44,1.15.89,1a3.53,3.53,0,0,1,1.71-4.29,8.28,8.28,0,0,1,2.57-.36,7.59,7.59,0,0,1,1.26-.14Z" transform="translate(-30.76 -20.59)" fill="#473f47"/><path d="M239,80.08A18.1,18.1,0,0,1,235.41,79a4.28,4.28,0,0,0,2.94,4.52h0a17.9,17.9,0,0,1,.07-3.19.34.34,0,0,1,.09-.24.28.28,0,0,1,.22,0H239Z" transform="translate(-30.76 -20.59)" fill="#de9f93"/><path d="M221,101.26l-1.73,7.58a4.53,4.53,0,0,0,1.54,5.1,12.08,12.08,0,0,0,3.64,3.22,10.55,10.55,0,0,0,3.11.84,44.48,44.48,0,0,0,8.55.47,1.5,1.5,0,0,0,.66-.13,1.36,1.36,0,0,0,.49-.52,29,29,0,0,0,2.58-4.78,26.71,26.71,0,0,0-7.47-3.5,3,3,0,0,1-1.44-.71,2.45,2.45,0,0,1-.52-1.16c-1.12-4.85,1.48-10.25-.61-14.77-1.18-2.57-3.71-5.34-5.57-1.89C222.54,94.15,221.79,97.81,221,101.26Z" transform="translate(-30.76 -20.59)" fill="#fff"/><path d="M241.82,113.1a6.47,6.47,0,0,1,1-.63,1.17,1.17,0,0,1,1.12,0c.16.11.28.29.46.35a.81.81,0,0,0,.38,0l2.31-.23a1.23,1.23,0,0,1,1.06.23c.3.35.12.88-.08,1.28a36.88,36.88,0,0,1-2,3.51,3,3,0,0,1-.5.62,2.3,2.3,0,0,1-.9.41,6.77,6.77,0,0,1-3.6-.15,10,10,0,0,1-3.18-1.73,1.24,1.24,0,0,1-.36-.36,1.34,1.34,0,0,1-.16-.55c-.11-.89.17-2.34,1.33-2.27A4.64,4.64,0,0,0,241.82,113.1Z" transform="translate(-30.76 -20.59)" fill="#fdb9a9"/><rect x="259.3" y="123.16" width="49.07" height="138.59" fill="#29638d"/><rect x="181.53" y="168.71" width="49.07" height="93.04" fill="#29638d"/><rect x="107.76" y="200.77" width="49.07" height="60.98" fill="#29638d"/><rect x="259.3" y="123.16" width="49.07" height="138.59" fill="url(#linear-gradient-2)"/><rect x="181.53" y="168.71" width="49.07" height="93.04" fill="url(#linear-gradient-3)"/><rect x="107.76" y="200.77" width="49.07" height="60.98" fill="url(#linear-gradient-4)"/><path d="M98.07,180.73c2.41-2.84,5.74-1.37,8.39.22,1.43.85,2.54,2.4,3.8,3.52A39.66,39.66,0,0,0,115,188.1a7.56,7.56,0,0,0,1.11.63,8.8,8.8,0,0,0,2.38.57l5.46.76a19.09,19.09,0,0,0,5.23.25,9.47,9.47,0,0,1,3-.27c1.45.26,1.79,1.4,1.93,2.67s.27,1.53-.84,2a25.59,25.59,0,0,1-4.61.73c-1.44.26-2.88.55-4.3.92a20.53,20.53,0,0,1-4.1.81c-3.1.15-6-1.38-8.72-2.86l-10.32-5.62C98.5,187.19,95.48,183.8,98.07,180.73Z" transform="translate(-30.76 -20.59)" fill="#29638d"/><path d="M98.07,180.73c2.41-2.84,5.74-1.37,8.39.22,1.43.85,2.54,2.4,3.8,3.52A39.66,39.66,0,0,0,115,188.1a7.56,7.56,0,0,0,1.11.63,8.8,8.8,0,0,0,2.38.57l5.46.76a19.09,19.09,0,0,0,5.23.25,9.47,9.47,0,0,1,3-.27c1.45.26,1.79,1.4,1.93,2.67s.27,1.53-.84,2a25.59,25.59,0,0,1-4.61.73c-1.44.26-2.88.55-4.3.92a20.53,20.53,0,0,1-4.1.81c-3.1.15-6-1.38-8.72-2.86l-10.32-5.62C98.5,187.19,95.48,183.8,98.07,180.73Z" transform="translate(-30.76 -20.59)" fill="url(#linear-gradient-5)"/><path d="M133.7,190c-.35.2-.9.22-1.2.52s-.3,1.08-.36,1.49a1.28,1.28,0,0,0,.11.88,1.34,1.34,0,0,0,.36.31,7.22,7.22,0,0,0,2.5,1.31,5.37,5.37,0,0,0,3.61-.72,7.77,7.77,0,0,0,3.73-4.13c.15-.45.19-1.07-.24-1.29a1.17,1.17,0,0,0-.88.08,14.42,14.42,0,0,1-4.91.86,1.83,1.83,0,0,0,.07-1.26C135.36,188.35,134.67,189.38,133.7,190Z" transform="translate(-30.76 -20.59)" fill="#fcbdba"/><path d="M144.89,184.39v18c0,1.1-.53,2-1.18,2h-16c-.65,0-1.17-.89-1.17-2v-18c0-1.1.52-2,1.17-2h16C144.36,182.4,144.89,183.29,144.89,184.39Z" transform="translate(-30.76 -20.59)" fill="#29638d"/><path d="M144.89,184.39v18c0,1.1-.53,2-1.18,2h-16c-.65,0-1.17-.89-1.17-2v-18c0-1.1.52-2,1.17-2h16C144.36,182.4,144.89,183.29,144.89,184.39Z" transform="translate(-30.76 -20.59)" fill="url(#linear-gradient-6)"/><path d="M81,229.77s15.28,18,18,21.54,2.74,24.49,2.74,24.49h6.46s.21-20.77-2-27.82-14.09-29.47-14.09-29.47Z" transform="translate(-30.76 -20.59)" fill="#473f47"/><path d="M73.61,222s2,20.73,2.78,26.14-13.32,23.92-13.32,23.92L68.56,275s10.18-11.71,13.91-18.21,10.91-35.55,10.91-35.55C83.54,216.6,73.61,222,73.61,222Z" transform="translate(-30.76 -20.59)" fill="#473f47"/><path d="M106.65,191c-1.76,3.89-4.45,7.12-6.16,11-2.41,5.49-5.88,10.29-6.48,16.44-.14,1.4-.2,3-1.27,3.92a4.59,4.59,0,0,1-1.85.85A59.16,59.16,0,0,1,83,224.87a15.83,15.83,0,0,1-5,.13,6.47,6.47,0,0,1-4.25-2.53,6.68,6.68,0,0,1-.66-5.43c.85-3.18,2.86-5.48,5.21-7.67,3-2.83,4.34-8.3,5.66-12.07.93-2.66,1.8-5.34,2.69-8,1.08-3.25,2.84-5.08,5.15-7.63a16,16,0,0,1,5.2-4.38,8.08,8.08,0,0,1,11.3,7.47,13.46,13.46,0,0,1-.64,3.56A19.66,19.66,0,0,1,106.65,191Z" transform="translate(-30.76 -20.59)" fill="#29638d"/><path d="M107.76,158.94c-1.89-1.88-5.31-1-7.5-.29a6.9,6.9,0,0,0-1.8.74,5.64,5.64,0,0,0-1.81,2.07,7.65,7.65,0,0,0-1,2.85,8.91,8.91,0,0,0,.44,4A14.84,14.84,0,0,1,97.32,171c.57,2.56,1.15,5.12,1.71,7.69a1.21,1.21,0,0,0,.28.62,1.07,1.07,0,0,0,.52.2,16.29,16.29,0,0,0,4,.31,1.41,1.41,0,0,0,.67-.13,1.49,1.49,0,0,0,.63-1.33c.07-.77-.06-1.54,0-2.31a2.43,2.43,0,0,1,.73-1.7,5.53,5.53,0,0,1,1.94-.63,3.39,3.39,0,0,0,1.71-1.09c1.19-1.55.29-3.94,1.28-5.65a2,2,0,0,0,.42-.95c0-.46-.42-.8-.75-1.13C108.8,163.22,109.32,160.52,107.76,158.94Z" transform="translate(-30.76 -20.59)" fill="#fcbdba"/><path d="M100.81,168.28a3.42,3.42,0,0,1-.62-1.16,1.2,1.2,0,0,0-1-.82,1,1,0,0,0-.84.69,2.06,2.06,0,0,0,.24,1.79,6.62,6.62,0,0,0,1.25,1.39l-.6,1.51a1.67,1.67,0,0,1-.27.51,1.3,1.3,0,0,1-.61.33,2.74,2.74,0,0,1-2.53-.94,8.1,8.1,0,0,1-1.35-2.46l-1-2.59c-.51-1.25.28-1.73.23-2.9a1.72,1.72,0,0,0-.25-.53,4.16,4.16,0,0,1,0-3.61,2.77,2.77,0,0,1,.86-1.14,3.25,3.25,0,0,1,.93-.42c1.54-.5,3.15-.76,4.7-1.2a49.36,49.36,0,0,1,4.92-1.42,6.57,6.57,0,0,1,4.91.86,1.75,1.75,0,0,1,.85,1.38,2.22,2.22,0,0,1-.71,1.26,11.38,11.38,0,0,1-5.3,3.32c-1,.29-2.62.28-3.21,1.34C100.74,164.69,101,166.91,100.81,168.28Z" transform="translate(-30.76 -20.59)" fill="#fc682d"/><path d="M100.43,180.92c3.25-1.82,5.85.72,7.78,3.13,1,1.3,1.54,3.15,2.33,4.64a40,40,0,0,0,3.17,5.05,7.7,7.7,0,0,0,.81,1,8.55,8.55,0,0,0,2,1.37l4.84,2.62a19.2,19.2,0,0,0,4.82,2.06,9.29,9.29,0,0,1,2.88.8c1.27.75,1.19,1.93.87,3.17s-.27,1.53-1.47,1.55a28.4,28.4,0,0,1-4.58-.93c-1.42-.26-2.88-.48-4.34-.64a21.31,21.31,0,0,1-4.13-.67c-3-1-5.13-3.4-7.17-5.74l-7.69-8.88C98.57,187.11,96.93,182.88,100.43,180.92Z" transform="translate(-30.76 -20.59)" fill="#29638d"/><path d="M130.56,202.08c-.4.06-.93-.12-1.31.06s-.66.91-.86,1.28a1.22,1.22,0,0,0-.2.85,1.41,1.41,0,0,0,.22.42,7.3,7.3,0,0,0,1.89,2.1,5.34,5.34,0,0,0,3.63.59,7.7,7.7,0,0,0,4.94-2.56c.3-.37.55-.94.23-1.29a1.14,1.14,0,0,0-.85-.24,14.43,14.43,0,0,1-4.91-.91,1.84,1.84,0,0,0,.51-1.15C132.69,201.1,131.68,201.82,130.56,202.08Z" transform="translate(-30.76 -20.59)" fill="#fcbdba"/><path d="M63.09,272.29c1.41,0,4.81,1.29,5.5,2.57a3.83,3.83,0,0,1,.3,1.5,10.41,10.41,0,0,0,1.37,4.27c.56,1,1.27,2.26.6,3.1s-2,.52-3,.07a30.54,30.54,0,0,1-9.33-6.8.77.77,0,0,1-.22-.22,1,1,0,0,1,.22-1.34C59.67,274.11,61.22,272.28,63.09,272.29Z" transform="translate(-30.76 -20.59)" fill="#29638d"/><path d="M102,275.4c1.23-.71,4.84-1.24,6.07-.47a3.68,3.68,0,0,1,1,1.15,10.76,10.76,0,0,0,3.3,3c1,.56,2.23,1.32,2.07,2.39s-1.49,1.45-2.56,1.54a30.31,30.31,0,0,1-11.51-1.28,1,1,0,0,1-.33-.09.94.94,0,0,1-.43-1.26h0C99.92,278.69,100.35,276.33,102,275.4Z" transform="translate(-30.76 -20.59)" fill="#29638d"/><path d="M129.52,128.47a7.2,7.2,0,0,1,4.25-2.85,8,8,0,0,1,6.45.95,1.35,1.35,0,0,0,.87.35,1.33,1.33,0,0,0,.55-.29,7.48,7.48,0,0,1,5.25-1.32c2.23.27,3.17,1.78,4.6,3.35a1.93,1.93,0,0,1,1.38-1,5.2,5.2,0,0,1,1.76,0,5.8,5.8,0,0,1,2.57.78c1.22.85,1.64,2.43,2.48,3.67a.45.45,0,0,0,.3.24.47.47,0,0,0,.31-.16,8.55,8.55,0,0,1,.76-.93,2,2,0,0,1,2.54.22,6.79,6.79,0,0,1,1.46,2.34A4.75,4.75,0,0,0,166.7,136a5.32,5.32,0,0,0,1.86.59,8.31,8.31,0,0,1,4.94,2.52,3.86,3.86,0,0,1,.93,2.51,2.63,2.63,0,0,1-1.33,2.24c-1.9,1-4.22-1-6.28-.43s-5.29-.05-7.44-.83c-1.74-.64-3.59-1.48-5.37-1a6.1,6.1,0,0,1-1.72.47,3.33,3.33,0,0,1-1.27-.34,12.6,12.6,0,0,1-3.39-1.91c-1.94-1.64-3-4.26-5.29-5.43a5.26,5.26,0,0,0-4.27-.24c-.58.23-1.11.56-1.7.77a6.5,6.5,0,0,1-2.14.36,6.18,6.18,0,0,1-4.89-1.77C128.16,132.15,128.57,129.9,129.52,128.47Z" transform="translate(-30.76 -20.59)" fill="#473f47"/><path d="M127,134a2.89,2.89,0,0,0,.45,3.73,4.12,4.12,0,0,0,1.61.62l3.41.81-1.27-3.46a3,3,0,0,1-.23-2,2.13,2.13,0,0,1,1.78-1.24,21.67,21.67,0,0,1,2.28,0,.62.62,0,0,0,.55-.24c.11-.24-.12-.51-.34-.67C132.52,129.62,128.57,131.36,127,134Z" transform="translate(-30.76 -20.59)" fill="#473f47"/><path d="M160.32,212.26a6.48,6.48,0,0,1-.35,3.51c-.71,1.55-2.26,2.51-3.44,3.74a1.12,1.12,0,0,0-.41.87.81.81,0,0,0,.68.57,2.07,2.07,0,0,0,.92-.15,39.52,39.52,0,0,1,4.22-1.43c.72-.15,1.57-.29,1.9-.94a2.3,2.3,0,0,0-.09-1.67,22.27,22.27,0,0,1-.94-6.28,4.11,4.11,0,0,0-.19-1.56,1.44,1.44,0,0,0-1.92-.69,1.38,1.38,0,0,0-.53.43C159.51,209.57,160.2,211.27,160.32,212.26Z" transform="translate(-30.76 -20.59)" fill="#fcbdba"/><path d="M185.24,214.57a6.47,6.47,0,0,1,.36,3.51c-.38,1.67-1.71,2.91-2.62,4.36a1.13,1.13,0,0,0-.22.94.77.77,0,0,0,.78.41,2.1,2.1,0,0,0,.87-.33,38.81,38.81,0,0,1,3.84-2.24c.68-.3,1.49-.61,1.68-1.32a2.32,2.32,0,0,0-.43-1.61,22.5,22.5,0,0,1-2.19-6,4.17,4.17,0,0,0-.5-1.49,1.44,1.44,0,0,0-2-.29,1.48,1.48,0,0,0-.43.53C183.9,212.11,184.92,213.63,185.24,214.57Z" transform="translate(-30.76 -20.59)" fill="#fcbdba"/><path d="M176.61,157.33s-7.76,20.47-14.33,27.58a26.12,26.12,0,0,1,1.13,5.32c.27,3-.53,5.79-.32,8.71l.72,9.79c0,.45,0,1-.34,1.23a1.31,1.31,0,0,1-.78.13l-3.5-.13a155.07,155.07,0,0,0-4.36-17,38.75,38.75,0,0,1-1.78-6.87c-.64-5.14,2.42-10.54,4.31-15.21,1.15-2.82,2.14-6.87,4.1-9.26,1.64-2,4.63-1.94,7.19-2.28a17,17,0,0,0,5.53-1.71A2.63,2.63,0,0,1,176.61,157.33Z" transform="translate(-30.76 -20.59)" fill="#473f47"/><path d="M181.11,156.16s.26,21.89-3.26,30.9a27.44,27.44,0,0,1,3,4.54,25.52,25.52,0,0,1,1.51,4.16l5.12,17.12a14.09,14.09,0,0,1-5,.53l-9.69-13.89a22.23,22.23,0,0,1-3.82-7.23c-1.26-5.21-.68-25.44-.32-26.54.79-2.46,3.6-3.49,5.86-4.75a17.17,17.17,0,0,0,4.52-3.61C179.61,156.7,180.19,156.09,181.11,156.16Z" transform="translate(-30.76 -20.59)" fill="#473f47"/><path d="M147.38,170.78a15.19,15.19,0,0,1-4.19,7.34,5.87,5.87,0,0,0-1.66,1.88c.65,0,1.51.26,1.49.91a1.18,1.18,0,0,1-.2.54,4.49,4.49,0,0,1-1.45,1.46,2.3,2.3,0,0,0-.8.65,1.2,1.2,0,0,0,.59,1.58,2.54,2.54,0,0,0,1.84,0,5.9,5.9,0,0,0,4-4.48c.11-.61.13-1.23.24-1.84a12.25,12.25,0,0,1,1.31-3.23,68.15,68.15,0,0,0,3.94-9.52,3.64,3.64,0,0,0,.11-2.91c-.86-1.53-3.73-2.28-4.1-.11C148.06,165.65,148.07,168.23,147.38,170.78Z" transform="translate(-30.76 -20.59)" fill="#fcbdba"/><path d="M134.05,165.62A15.21,15.21,0,0,1,128,171.5a5.93,5.93,0,0,0-2.11,1.34c.61.2,1.37.67,1.17,1.29a1.11,1.11,0,0,1-.34.46,4.77,4.77,0,0,1-1.8,1,2.25,2.25,0,0,0-1,.4,1.19,1.19,0,0,0,.12,1.67,2.44,2.44,0,0,0,1.76.54,5.9,5.9,0,0,0,5.1-3.18c.27-.55.46-1.14.74-1.69a12.69,12.69,0,0,1,2.15-2.74,69.75,69.75,0,0,0,6.46-8,3.69,3.69,0,0,0,.91-2.77c-.39-1.71-2.94-3.23-3.9-1.25C136.14,160.88,135.43,163.36,134.05,165.62Z" transform="translate(-30.76 -20.59)" fill="#fcbdba"/><path d="M141.76,148.92a35.65,35.65,0,0,1-7.26,11.41c-.13.15-.28.35-.21.54a.55.55,0,0,0,.29.25,23.42,23.42,0,0,0,5.72,2.17,1.75,1.75,0,0,0,.72.06,1.68,1.68,0,0,0,.95-.86q2.53-3.9,4.69-8a18.51,18.51,0,0,0,2.51-7.53,6.41,6.41,0,0,0-.94-3.89c-.85-1.25-3.57-2.67-4.69-1a9.1,9.1,0,0,0-.71,3A31.27,31.27,0,0,1,141.76,148.92Z" transform="translate(-30.76 -20.59)" fill="#29638d"/><path d="M141.76,148.92a35.65,35.65,0,0,1-7.26,11.41c-.13.15-.28.35-.21.54a.55.55,0,0,0,.29.25,23.42,23.42,0,0,0,5.72,2.17,1.75,1.75,0,0,0,.72.06,1.68,1.68,0,0,0,.95-.86q2.53-3.9,4.69-8a18.51,18.51,0,0,0,2.51-7.53,6.41,6.41,0,0,0-.94-3.89c-.85-1.25-3.57-2.67-4.69-1a9.1,9.1,0,0,0-.71,3A31.27,31.27,0,0,1,141.76,148.92Z" transform="translate(-30.76 -20.59)" fill="url(#linear-gradient-7)"/><path d="M181.11,156.16a2.35,2.35,0,0,1-.32,1,30.17,30.17,0,0,1-2.17,3.89,16.14,16.14,0,0,1-9.11,6.33,15.52,15.52,0,0,1-4.5.51,3.89,3.89,0,0,1-1.61-.32,4.43,4.43,0,0,1-1.67-1.84c-2.23-3.71-4.41-7.63-7.44-10.63a17.84,17.84,0,0,0-3.42-2.7c-1.79-1.09-3.81-1.83-5.35-3.24a8.52,8.52,0,0,1-2.66-6.61c.13-2.7,1.54-6,4.29-6.77a17,17,0,0,1,9.77.38,38.53,38.53,0,0,1,9.72,5.14c1.22.82,2.42,1.65,3.56,2.57a60.82,60.82,0,0,1,7.32,7.56l2.87,3.34A2.27,2.27,0,0,1,181.11,156.16Z" transform="translate(-30.76 -20.59)" fill="#29638d"/><path d="M169.51,167.38a15.52,15.52,0,0,1-4.5.51,3.89,3.89,0,0,1-1.61-.32,4.43,4.43,0,0,1-1.67-1.84c-2.23-3.71-4.41-7.63-7.44-10.63.13-.72.33-1.43.53-2.13.45-1.61.76-4.36,2.35-5.32a58.47,58.47,0,0,0,2.57,5.5c.93,1.78,2.2,3.43,3.08,5.22a36.43,36.43,0,0,0,6.25,8.45A4,4,0,0,1,169.51,167.38Z" transform="translate(-30.76 -20.59)" fill="url(#linear-gradient-8)"/><path d="M147.13,162.73a.88.88,0,0,0,0,.64.81.81,0,0,0,.5.35,16.37,16.37,0,0,0,5.93.92.94.94,0,0,0,.59-.14,1,1,0,0,0,.35-.6c1-3.07,1.91-6.14,2.83-9.22a18.78,18.78,0,0,0,1.08-5.8,17.94,17.94,0,0,0-1-4.92c-1.52-4.82-6.49-3.86-7,.79C149.69,151,149.25,156.78,147.13,162.73Z" transform="translate(-30.76 -20.59)" fill="#29638d"/><path d="M164,218.57a.79.79,0,0,0-1.42-.66,14.76,14.76,0,0,1-2.21,1.45,3.62,3.62,0,0,1-2.56.32,2.58,2.58,0,0,0-1.47-.28,2,2,0,0,0-.62.42,8.19,8.19,0,0,1-2.19,1.38,2.15,2.15,0,0,0-.91.56.46.46,0,0,0-.13.29c0,.27.34.39.6.43,2.84.4,5.65-.66,8.35-1.61a3.4,3.4,0,0,1,.94-.23c.48,0,1.09.08,1.4-.39A3.44,3.44,0,0,0,164,218.57Z" transform="translate(-30.76 -20.59)" fill="#473f47"/><path d="M190.3,219.91a1,1,0,0,0-.46-.87c-.36-.15-.75.13-1,.39a16.35,16.35,0,0,1-2,1.72,3.66,3.66,0,0,1-2.51.63,2.54,2.54,0,0,0-1.49-.09,1.76,1.76,0,0,0-.56.49,8.3,8.3,0,0,1-2,1.64,2.19,2.19,0,0,0-.84.67.49.49,0,0,0-.09.31c0,.26.38.34.65.34,2.86.05,5.52-1.35,8.08-2.63a3.34,3.34,0,0,1,.91-.34c.47-.09,1.09-.06,1.34-.56A3.49,3.49,0,0,0,190.3,219.91Z" transform="translate(-30.76 -20.59)" fill="#473f47"/><path d="M133.78,140c.58.45,1.17.9,1.73,1.38a20.82,20.82,0,0,0,2.5,2.09,3.72,3.72,0,0,0,3.1.57,2.12,2.12,0,0,0,1.41-2.56c.58-.24,1.2.26,1.56.78s.71,1.14,1.32,1.3c.87.23,1.63-.65,2-1.49a7,7,0,0,0-1.73-7.56c-2.16-2-4.12-4.79-6.88-5.87a7.85,7.85,0,0,0-3-.45,5.68,5.68,0,0,0-2.68.63,7.13,7.13,0,0,0-1.5,1.24c-2,1.94-3.61,3.59-1.82,6.16A17.9,17.9,0,0,0,133.78,140Z" transform="translate(-30.76 -20.59)" fill="#fcbdba"/><path d="M133.6,133.9c.35-.25.69-.61,1.12-.6s.81.45,1.23.66c.86.43,1.86-.13,2.81-.27a3.16,3.16,0,0,1,3,1.39,2,2,0,0,1-.4-1c0-.38.33-.77.7-.71a.88.88,0,0,1,.44.29,2.17,2.17,0,0,1,.42,2.06,3.2,3.2,0,0,0,3.44-.21,1.4,1.4,0,0,0,.6-1.71c-.58-2.1-2.76-3.24-4.22-4.85a8.87,8.87,0,0,0-1.61-1.63,4.72,4.72,0,0,0-1.58-.59,9.8,9.8,0,0,0-5.5.12c-1.68.61-4.34,2.78-4.64,4.66C129.1,133.63,131.9,135.12,133.6,133.9Z" transform="translate(-30.76 -20.59)" fill="#473f47"/><rect x="270.13" y="123.16" width="49.07" height="138.59" fill="#29638d"/><rect x="192.35" y="168.71" width="49.07" height="93.04" fill="#29638d"/><rect x="118.58" y="200.77" width="49.07" height="60.98" fill="#29638d"/></svg>