<svg id="Layer_1" data-name="Layer 1" xmlns="http://www.w3.org/2000/svg" xmlns:xlink="http://www.w3.org/1999/xlink" width="597.03" height="595.9" viewBox="0 0 597.03 595.9">
  <defs>
    <linearGradient id="linear-gradient" x1="101.66" y1="478.77" x2="99.41" y2="381.91" gradientTransform="matrix(1, 0, 0, -1, 0.01, 598)" gradientUnits="userSpaceOnUse">
      <stop offset="0" stop-opacity="0"/>
      <stop offset="0.91" stop-opacity="0.8"/>
      <stop offset="1"/>
    </linearGradient>
    <linearGradient id="linear-gradient-2" x1="113.9" y1="478.49" x2="111.65" y2="381.63" xlink:href="#linear-gradient"/>
    <linearGradient id="linear-gradient-3" x1="126.14" y1="478.2" x2="123.89" y2="381.35" xlink:href="#linear-gradient"/>
    <linearGradient id="linear-gradient-4" x1="231.92" y1="461.64" x2="272.9" y2="461.64" gradientTransform="translate(-106.02 -172.55)" gradientUnits="userSpaceOnUse">
      <stop offset="0" stop-color="#ecc4d7"/>
      <stop offset="0.42" stop-color="#efd4d1"/>
      <stop offset="1" stop-color="#f2eac9"/>
    </linearGradient>
    <linearGradient id="linear-gradient-5" x1="135.15" y1="169.68" x2="214.55" y2="308.2" xlink:href="#linear-gradient"/>
    <linearGradient id="linear-gradient-6" x1="428.12" y1="331.96" x2="447.3" y2="331.96" gradientTransform="translate(-289.11 29.28) rotate(-7.48)" xlink:href="#linear-gradient-4"/>
  </defs>
  <title>web_searching</title>
  <path d="M55.43,578.29c-24.94,12.07,51,19.11,78.61,17.34l121.22-7.74c5.24-.33,19.15-.48,15.07-3.8C249.45,567.09,88.34,562.35,55.43,578.29Z" transform="translate(0 0)" fill="#29638d" opacity="0.18" style="isolation: isolate"/>
  <path d="M554.22,462c-7.75,11.24-16.35,19.4-25.65,23.54-73.32,32.61-94.71-51-284.86,16.27a417.88,417.88,0,0,1-45.07,13.28C90.74,539.94,42.51,496.93,27.38,462c-6.15-14.18-6.85-27-3.87-33.49,11.26-24.4,1-64.18-20.43-178.18S76.4,98.5,150.08,80.59c47.22-11.47,70.22-27.23,80.65-37.07a125.59,125.59,0,0,1,42.11-26.58c106-39.55,157.48-4,220.66,46.42,13.95,11.09,28.48,23,44.23,34.86C620.44,160.63,607.63,384.52,554.22,462Z" transform="translate(0 0)" fill="#29638d" opacity="0.27" style="isolation: isolate"/>
  <path d="M554.22,462c-7.75,11.24-16.35,19.4-25.65,23.54-73.32,32.61-94.71-51-284.86,16.27C103.82,551.24,44.48,501.45,27.38,462Z" transform="translate(0 0)" fill="#29638d" opacity="0.18" style="isolation: isolate"/>
  <path d="M537.74,146.08V419.45a20.08,20.08,0,0,1-20.08,20.08h-415a20.08,20.08,0,0,1-20.14-20V146.08A20.09,20.09,0,0,1,102.6,126H517.65a20.08,20.08,0,0,1,20.09,20.07h0Z" transform="translate(0 0)" fill="#fff"/>
  <path d="M158.78,514c-.83,5.35-31.86,61.78-31.86,61.78,9.07,1.64,12.37,8.24,12.37,8.24h-28.1l22.23-70s1-33.46-4.83-51.59c-3.84-12.09-3.61-26.1-3-34.1.29-4,.66-6.48.66-6.48l41.47,18.74S159.61,508.67,158.78,514Z" transform="translate(0 0)" fill="#25233a"/>
  <path d="M209.35,584.05H180.88v-.15l-5.14-73.58S151.68,481,137.68,459.61s-11.6-35.52-11.6-35.52h38.3c1.94.78,4.56,8.38,6.25,12.19,7.13,16.16,23.31,49.59,24.73,56,4.55,20.25-1.67,81.11-1.67,81.11C202.35,574.16,209.35,584.05,209.35,584.05Z" transform="translate(0 0)" fill="#3f3d56"/>
  <path d="M441.81,283.26H137.55V256.35H441.81Zm-303.26-1H440.81V257.35H138.55Z" transform="translate(0 0)" fill="#29638d"/>
  <rect x="441.8" y="256.36" width="40.1" height="26.9" fill="#29638d"/>
  <circle cx="459.7" cy="268.41" r="6.8" fill="none" stroke="#fff" stroke-miterlimit="10" stroke-width="0.73"/>
  <rect x="467.19" y="270.8" width="2.15" height="8.86" transform="translate(-32.95 484.53) rotate(-53.11)" fill="#fff"/>
  <path d="M537.74,146.08v6.62H82.51v-6.62A20.09,20.09,0,0,1,102.6,126H517.65a20.08,20.08,0,0,1,20.09,20.07h0Z" transform="translate(0 0)" fill="#29638d"/>
  <path d="M105.43,140.78a4.26,4.26,0,1,1-4.26-4.26h0a4.25,4.25,0,0,1,4.26,4.24h0Z" transform="translate(0 0)" fill="url(#linear-gradient)"/>
  <path d="M117.68,140.78a4.26,4.26,0,1,1-4.26-4.26h0a4.25,4.25,0,0,1,4.26,4.24h0Z" transform="translate(0 0)" fill="url(#linear-gradient-2)"/>
  <path d="M129.92,140.78a4.26,4.26,0,1,1-4.26-4.26h0a4.25,4.25,0,0,1,4.26,4.24h0Z" transform="translate(0 0)" fill="url(#linear-gradient-3)"/>
  <path d="M135.19,389.16l-9.32,16.69a31.26,31.26,0,0,1-3.52-2.87c-7.25-6.67-22-24.92-7.76-53.79,0,0,6.55-17.85,10.23-25.49a11.46,11.46,0,0,1,2-3.34C129,318.85,135.19,389.16,135.19,389.16Z" transform="translate(0 0)" fill="#29638d"/>
  <ellipse cx="166.88" cy="274.9" rx="9.54" ry="18.9" transform="translate(-127.11 144.56) rotate(-34.83)" fill="none" stroke="#3f3d56" stroke-miterlimit="10" stroke-width="2"/>
  <polygon points="176.5 291.32 182.24 299.26 185.26 297 179.45 289.56 176.5 291.32" fill="#3f3d56"/>
  <rect x="185.06" y="289.75" width="5.65" height="26.12" transform="translate(-150.74 191.8) rotate(-40.03)" fill="#091240"/>
  <path d="M157.56,262.31s2.61,6,4.81,12.39c.58,1.65,3.83,2.7,4.3,4.31.92,3.18-1.52,4.18-1.64,6-.41,6.18,1.85,12.91-8.55,16.69-9.22,3.35-5.5,18.4-5.5,18.4s-11.81,5.22-17-1.37c0,0,1.93-19.78-6.31-36.81S141.76,246.1,157.56,262.31Z" transform="translate(0 0)" fill="url(#linear-gradient-4)"/>
  <path d="M132.52,315.89l1-4.88s16.35.9,18,2.44a14.87,14.87,0,0,1,2.75,3.88Z" transform="translate(0 0)" fill="#25233a"/>
  <path d="M164.38,424.5h-34.7c-5.4-.17-7.64-1.14-7.5-6.47.26-9.73,0-76.87,2.61-92,1.59-9.31,8.42-11.11,9.93-11.4H135s10.34.89,14.63.83c4.57-.07,10.16,6.63,10.16,6.63s3.56,13.79,6.74,25.52c1.55,5.74,3,11,3.92,13.89,1.92,6.13,4.11,34.38,5.27,50.91a11.36,11.36,0,0,1-10.58,12.07h0Z" transform="translate(0 0)" fill="#29638d"/>
  <path d="M164.38,424.5h-10l-4-81.38,16.15,4.44c1.55,5.74,3,11,3.92,13.89,1.92,6.13,4.11,34.38,5.27,50.91a11.34,11.34,0,0,1-10.51,12.11h0Z" transform="translate(0 0)" fill="url(#linear-gradient-5)"/>
  <path d="M157.56,262.31l-3.87-.42a8,8,0,0,1-3.46,6.15,4.83,4.83,0,0,0-2-1.8c-1.42,1.65.24,4.1.27,6.26a11.45,11.45,0,0,1-.62,3,15.67,15.67,0,0,0-.3,6.64c-1.46-.11-2.15-2.07-3.57-2.36s-2.37,1-2.72,2.23a5.72,5.72,0,0,0,4.25,6.87h.2c.33.05.72.1.9.38a1.09,1.09,0,0,1,.1.64,25.62,25.62,0,0,1-1.46,8.18,10.85,10.85,0,0,1-5.43,6.06c-1.75.77-4.2.71-5.16-1,.15.89-.93,1.6-1.82,1.41a3.61,3.61,0,0,1-2-1.68c-2.8-4.08-3.52-9.17-5.16-13.84-1.43-4.08-3.59-7.87-5.25-11.87s-2.86-8.35-2.21-12.62a15.72,15.72,0,0,1,12.12-12.73,15.56,15.56,0,0,0,3.36-.82,32.26,32.26,0,0,0,2.72-1.75,14.89,14.89,0,0,1,6-1.5,35.4,35.4,0,0,1,6.51.13c8,.61,7.69,8.23,8.27,9.87C157.27,258.16,158,262.36,157.56,262.31Z" transform="translate(0 0)" fill="#3f3d56"/>
  <path d="M184.14,292.63a6.1,6.1,0,0,1,.55-2.22,2,2,0,0,1,1.85-1.14c1,.11,1.56,1.07,2,1.93.64,1.22,1.27,2.44,1.9,3.67,1.45-.67,3.1.49,4,1.82s1.41,2.94,2.68,3.89a4.52,4.52,0,0,1,1.06.89,2.88,2.88,0,0,1,.29,1.91l-.21,2.58c-.13,1.68-.34,3.53-1.56,4.71a7.2,7.2,0,0,1-4,1.5,11.79,11.79,0,0,1-3.84.15,10.94,10.94,0,0,1-4.7-2.59c-1.93-1.56-7.2-6.66-3.75-8.69,1.34-.79,2.07.12,3-1.44S184,294.38,184.14,292.63Z" transform="translate(0 0)" fill="url(#linear-gradient-6)"/>
  <path d="M197.61,347.32c-2.72,12-11.18,19-19.71,20.47a17.91,17.91,0,0,1-11.36-1.59c-10.8-5.58-22.33-34.92-21.75-44.2.28-4.44,2.18-6.51,4.82-6.56,2.88-.07,6.65,2.28,10.16,6.6s6.4,10.13,9.32,14.46a21.35,21.35,0,0,0,3.66,4.38,6.33,6.33,0,0,0,3,1.53,5.38,5.38,0,0,0,4.17-1.33c8-6.19,4.78-30.43,4.78-30.43l4.13-.24,8.46-.5S201.58,329.7,197.61,347.32Z" transform="translate(0 0)" fill="#29638d"/>
  <path d="M261.14,223.19H258v-1a1.76,1.76,0,0,0-.12-.85.42.42,0,0,0-.4-.18.5.5,0,0,0-.46.24,1.49,1.49,0,0,0-.15.75,2.3,2.3,0,0,0,.17,1,2.66,2.66,0,0,0,1,.79,9.46,9.46,0,0,1,2.81,2.17,5.05,5.05,0,0,1,.58,2.75,4.73,4.73,0,0,1-.32,2,2.51,2.51,0,0,1-1.24,1.1,5.14,5.14,0,0,1-2.15.44,4.8,4.8,0,0,1-2.29-.51,2.55,2.55,0,0,1-1.25-1.3,6.74,6.74,0,0,1-.29-2.23v-.84H257v1.56a2,2,0,0,0,.13.93.49.49,0,0,0,.46.21.56.56,0,0,0,.5-.26,1.5,1.5,0,0,0,.16-.78,2.42,2.42,0,0,0-.31-1.49,9.93,9.93,0,0,0-1.56-1.17,13.9,13.9,0,0,1-1.65-1.2,2.74,2.74,0,0,1-.68-1,6.11,6.11,0,0,1,.11-3.85,2.59,2.59,0,0,1,1.22-1.07,5,5,0,0,1,2-.38,5.29,5.29,0,0,1,2.22.42,2.35,2.35,0,0,1,1.22,1.06,5.71,5.71,0,0,1,.3,2.17Z" transform="translate(0 0)" fill="#29638d"/>
  <path d="M271.07,219.3h5.58v2.57h-2.23v2.44h2.09v2.45h-2.09v2.83h2.45v2.58h-5.8Z" transform="translate(0 0)" fill="#29638d"/>
  <path d="M292.23,219.3l1.91,12.87h-3.42l-.18-2.32h-1.2l-.2,2.32h-3.46l1.71-12.87Zm-1.78,8.27q-.26-2.19-.51-5.4-.51,3.69-.64,5.4Z" transform="translate(0 0)" fill="#29638d"/>
  <path d="M303.32,219.3h2.37a19,19,0,0,1,3.2.18,2.19,2.19,0,0,1,1.37.93,4.28,4.28,0,0,1,.53,2.4,3.83,3.83,0,0,1-.37,2,2,2,0,0,1-1.44.64,2.54,2.54,0,0,1,1.34.66,2.05,2.05,0,0,1,.43.76,13.42,13.42,0,0,1,.08,1.9v3.4h-3.15v-4.28a2.94,2.94,0,0,0-.16-1.28c-.11-.16-.4-.25-.86-.25v5.81h-3.34Zm3.34,2.2v2.86a1.55,1.55,0,0,0,.79-.15c.16-.11.23-.44.23-1v-.76a1,1,0,0,0-.22-.8A1.23,1.23,0,0,0,306.66,221.5Z" transform="translate(0 0)" fill="#29638d"/>
  <path d="M328.51,224.9h-3.35v-2.24a3.77,3.77,0,0,0-.11-1.21.46.46,0,0,0-.47-.24.51.51,0,0,0-.53.29,4.92,4.92,0,0,0-.11,1.27v6A4.6,4.6,0,0,0,324,230a.49.49,0,0,0,.5.29.47.47,0,0,0,.5-.29,4.39,4.39,0,0,0,.12-1.35V227h3.35v.5a9.63,9.63,0,0,1-.29,2.83A2.84,2.84,0,0,1,327,231.8a4.29,4.29,0,0,1-2.39.63,4.85,4.85,0,0,1-2.42-.54,2.51,2.51,0,0,1-1.26-1.47,9.65,9.65,0,0,1-.31-2.83v-3.76a18.17,18.17,0,0,1,.09-2.09,3,3,0,0,1,.57-1.34,3.15,3.15,0,0,1,1.31-1,5.37,5.37,0,0,1,4.37.2,2.73,2.73,0,0,1,1.26,1.42,8.51,8.51,0,0,1,.31,2.66Z" transform="translate(0 0)" fill="#29638d"/>
  <path d="M346,219.3v12.87h-3.35v-5.41h-1v5.41h-3.35V219.3h3.35v4.6h1v-4.6Z" transform="translate(0 0)" fill="#29638d"/>
  <path d="M128.45,422.92a12.44,12.44,0,0,1,1.26,1.54c-5.4-.16-7.64-1.13-7.5-6.46.26-9.73,0-76.87,2.61-92,1.59-9.31,8.42-11.11,9.93-11.4H135a30.81,30.81,0,0,0-6.53,14.9C127.29,338.28,125.67,420,128.45,422.92Z" transform="translate(0 0)" fill="#fff" opacity="0.24" style="isolation: isolate"/>
  <path d="M177.9,367.79a17.91,17.91,0,0,1-11.36-1.59c-10.8-5.58-22.33-34.92-21.75-44.2.28-4.44,2.18-6.51,4.82-6.56,0,1-4.33,11.84,8.71,34.88C167.12,365.88,175.59,366.53,177.9,367.79Z" transform="translate(0 0)" fill="#fff" opacity="0.24" style="isolation: isolate"/>
  <path d="M172.75,340.88a10.07,10.07,0,0,1-3.66-4.38A21.35,21.35,0,0,0,172.75,340.88Z" transform="translate(0 0)" fill="#fff"/>
  <path d="M175.76,342.45a5.38,5.38,0,0,0,4.17-1.33c8-6.19,4.78-30.43,4.78-30.43l4.13-.24S192.9,348.79,175.76,342.45Z" transform="translate(0 0)" fill="#fff" opacity="0.24" style="isolation: isolate"/>
  <path d="M112.7,373.45c-2.08,13.2,9.69,25.08,9.69,25.08V403c-7.25-6.67-22-24.92-7.76-53.79,0,0,6.55-17.85,10.23-25.49V326S114.79,360.28,112.7,373.45Z" transform="translate(0 0)" fill="#fff" opacity="0.24" style="isolation: isolate"/>
  <path d="M182.19,584.05a15.44,15.44,0,0,0,.44,3.1l-1.65-3.1-.08-.15-5.14-73.58S151.7,481,137.7,459.61s-11.6-35.52-11.6-35.52h2.79a6.42,6.42,0,0,1,.85.37s2.77,25.27,46.21,79.6c0,0,8.56,7.88,6.59,37.75C180.76,568.32,181.81,579.45,182.19,584.05Z" transform="translate(0 0)" fill="#fff" opacity="0.24" style="isolation: isolate"/>
  <path d="M137.79,516.81l-23.16,67.24h-3.44l22.23-70s1-33.46-4.83-51.59c-3.84-12.09-3.61-26.1-3-34.1l4.14,16a116.3,116.3,0,0,0,5.25,25.9C139.33,483,137.79,516.81,137.79,516.81Z" transform="translate(0 0)" fill="#fff" opacity="0.24" style="isolation: isolate"/>
</svg>
