<svg xmlns="http://www.w3.org/2000/svg" xmlns:xlink="http://www.w3.org/1999/xlink" width="198" height="198" viewBox="0 0 198 198"><defs><style>.a{fill:#123147;opacity:0.02;}.b{fill:none;stroke:#0090bf;stroke-linecap:round;stroke-linejoin:round;stroke-width:7px;fill-rule:evenodd;}.c{filter:url(#a);}</style><filter id="a" x="0" y="0" width="198" height="198" filterUnits="userSpaceOnUse"><feOffset dy="3" input="SourceAlpha"/><feGaussianBlur stdDeviation="3" result="b"/><feFlood flood-color="#fff" flood-opacity="0.161"/><feComposite operator="in" in2="b"/><feComposite in="SourceGraphic"/></filter></defs><g transform="translate(-369 -1335)"><g class="c" transform="matrix(1, 0, 0, 1, 369, 1335)"><circle class="a" cx="90" cy="90" r="90" transform="translate(9 6)"/></g><g transform="translate(418.097 1378.687)"><path class="b" d="M18.987,76.435A14.987,14.987,0,1,1,4,91.422,14.987,14.987,0,0,1,18.987,76.435ZM68.944,38.968A14.987,14.987,0,1,1,53.957,53.955,14.987,14.987,0,0,1,68.944,38.968ZM18.987,1.5A14.987,14.987,0,1,1,4,16.487,14.987,14.987,0,0,1,18.987,1.5Z" transform="translate(5.991 -1.5)"/><path class="b" d="M2,4.5h9.991m29.958,0h59.964" transform="translate(-2 10.487)"/><path class="b" d="M2,19.5h9.991m29.958,0h59.964" transform="translate(-2 70.422)"/><path class="b" d="M101.914,12H91.922M61.964,12H2" transform="translate(-2 40.455)"/></g></g></svg>