<svg width="153" height="27" viewBox="0 0 153 27" fill="none" xmlns="http://www.w3.org/2000/svg">
<path d="M5.55859 16.9824V26H0.285156V0.40625H10.2695C12.1914 0.40625 13.8789 0.757812 15.332 1.46094C16.7969 2.16406 17.9219 3.16602 18.707 4.4668C19.4922 5.75586 19.8848 7.22656 19.8848 8.87891C19.8848 11.3867 19.0234 13.3672 17.3008 14.8203C15.5898 16.2617 13.2168 16.9824 10.1816 16.9824H5.55859ZM5.55859 12.7109H10.2695C11.6641 12.7109 12.7246 12.3828 13.4512 11.7266C14.1895 11.0703 14.5586 10.1328 14.5586 8.91406C14.5586 7.66016 14.1895 6.64648 13.4512 5.87305C12.7129 5.09961 11.6934 4.70117 10.3926 4.67773H5.55859V12.7109ZM34.8438 20.7266H25.5977L23.8398 26H18.2324L27.7598 0.40625H32.6465L42.2266 26H36.6191L34.8438 20.7266ZM27.0215 16.4551H33.4199L30.2031 6.875L27.0215 16.4551ZM61.7734 4.67773H53.9336V26H48.6602V4.67773H40.9258V0.40625H61.7734V4.67773ZM80.1953 14.9082H70.0703V21.7637H81.9531V26H64.7969V0.40625H81.918V4.67773H70.0703V10.7773H80.1953V14.9082ZM105.859 26H100.586L90.3203 9.16016V26H85.0469V0.40625H90.3203L100.604 17.2812V0.40625H105.859V26ZM119.939 16.6309H115.738V26H110.465V0.40625H119.975C122.998 0.40625 125.33 1.08008 126.971 2.42773C128.611 3.77539 129.432 5.67969 129.432 8.14062C129.432 9.88672 129.051 11.3457 128.289 12.5176C127.539 13.6777 126.396 14.6035 124.861 15.2949L130.398 25.7539V26H124.738L119.939 16.6309ZM115.738 12.3594H119.992C121.316 12.3594 122.342 12.0254 123.068 11.3574C123.795 10.6777 124.158 9.74609 124.158 8.5625C124.158 7.35547 123.812 6.40625 123.121 5.71484C122.441 5.02344 121.393 4.67773 119.975 4.67773H115.738V12.3594ZM146.729 19.2852C146.729 18.2891 146.377 17.5273 145.674 17C144.971 16.4609 143.705 15.8984 141.877 15.3125C140.049 14.7148 138.602 14.1289 137.535 13.5547C134.629 11.9844 133.176 9.86914 133.176 7.20898C133.176 5.82617 133.562 4.5957 134.336 3.51758C135.121 2.42773 136.24 1.57813 137.693 0.96875C139.158 0.359375 140.799 0.0546875 142.615 0.0546875C144.443 0.0546875 146.072 0.388672 147.502 1.05664C148.932 1.71289 150.039 2.64453 150.824 3.85156C151.621 5.05859 152.02 6.42969 152.02 7.96484H146.746C146.746 6.79297 146.377 5.88477 145.639 5.24023C144.9 4.58398 143.863 4.25586 142.527 4.25586C141.238 4.25586 140.236 4.53125 139.521 5.08203C138.807 5.62109 138.449 6.33594 138.449 7.22656C138.449 8.05859 138.865 8.75586 139.697 9.31836C140.541 9.88086 141.777 10.4082 143.406 10.9004C146.406 11.8027 148.592 12.9219 149.963 14.2578C151.334 15.5938 152.02 17.2578 152.02 19.25C152.02 21.4648 151.182 23.2051 149.506 24.4707C147.83 25.7246 145.574 26.3516 142.738 26.3516C140.77 26.3516 138.977 25.9941 137.359 25.2793C135.742 24.5527 134.506 23.5625 133.65 22.3086C132.807 21.0547 132.385 19.6016 132.385 17.9492H137.676C137.676 20.7734 139.363 22.1855 142.738 22.1855C143.992 22.1855 144.971 21.9336 145.674 21.4297C146.377 20.9141 146.729 20.1992 146.729 19.2852Z" fill="black"/>
</svg>
